<?xml version="1.0" encoding="UTF-8"?>
<svg id="Camada_1" xmlns="http://www.w3.org/2000/svg" viewBox="0 0 519.39 411.48">
  <defs>
    <style>
      .cls-1 {
        fill: #fefefe;
      }

      .cls-2 {
        fill: #040405;
      }

      .cls-3 {
        fill: #020203;
      }
    </style>
  </defs>
  <path class="cls-2" d="M261.17,0c.42.56,1.08.78,1.65,1.12,38.74,22.61,77.48,45.22,116.22,67.83.32.19.61.43.95.55,1.09.41,1.29,1.19,1.3,2.3.1,18.11.23,36.22.37,54.33.22,27.93.44,55.86.71,83.79.02,1.55-.46,2.35-1.78,3.15-38.69,23.3-77.36,46.65-116,70.03-1.17.71-1.95.68-3.1,0-39.04-22.82-78.1-45.62-117.18-68.37-1.24-.72-1.62-1.51-1.63-2.9-.28-44.99-.61-89.99-.93-134.98,0-1.17.05-2.34-.05-3.5-.08-.99.29-1.52,1.14-2.03,6.9-4.11,13.76-8.28,20.63-12.43,31.79-19.19,63.59-38.39,95.37-57.6.57-.35,1.4-.45,1.59-1.29h.74ZM361.74,141.45c-.13-19.28-.28-38.55-.37-57.83,0-1.34-.43-2.04-1.58-2.71-32.41-18.87-64.8-37.77-97.17-56.71-1.09-.64-1.85-.68-2.96,0-32.14,19.45-64.31,38.87-96.49,58.25-1.02.61-1.41,1.23-1.4,2.44.34,38.43.63,76.85.94,115.28.02,2.51-.37,1.82,1.82,3.1,32.22,18.82,64.47,37.61,96.68,56.46,1.22.72,2.05.74,3.28,0,32.03-19.4,64.09-38.75,96.17-58.07,1.17-.71,1.51-1.45,1.5-2.76-.17-19.15-.29-38.3-.42-57.46Z"/>
  <path class="cls-3" d="M456.03,411.48c-.04-.61-.11-1.22-.11-1.83,0-20.01,0-40.02,0-60.03q0-2.21,2.16-2.22c19.76,0,39.53,0,59.29,0,.67,0,1.35-.01,2.02-.02v13.26c-.66.22-1.34.11-2.01.11-10.55,0-21.1,0-31.65,0-4.91,0-9.81,0-14.72,0-1.89,0-1.74-.19-1.74,1.81,0,2.82,0,5.64,0,8.47,0,1.51-.11,1.42,1.36,1.42,16.26-.01,32.51-.02,48.77-.03v13.26c-.66.22-1.34.11-2.01.11-10.8,0-21.59,0-32.39,0-4.72,0-9.45,0-14.17,0-1.53,0-1.55.01-1.55,1.44-.01,3.25.02,6.5-.02,9.75-.01.91.17,1.26,1.19,1.26,16.32-.04,32.63-.04,48.95-.05v13.26h-63.36Z"/>
  <path class="cls-3" d="M380.89,411.48c-.04-.67-.11-1.34-.11-2.01,0-20,0-40,0-60.01,0-2.42-.24-2.05,2.04-2.05,16.32-.01,32.64.01,48.96-.02,4.24,0,7.56,1.73,10.18,4.95.42.52.78,1.1,1.16,1.66,1.08,1.55,1.53,3.2,1.52,5.15-.08,13.8-.06,27.61-.02,41.41,0,1.35-.34,2.49-.99,3.64-1.88,3.32-4.41,5.86-8.17,6.96-.16.05-.28.21-.42.32h-54.15ZM395.6,379.53c0,5.95,0,11.9,0,17.85,0,2.09-.16,1.82,1.9,1.83,7.54,0,15.09,0,22.63,0,1.04,0,2.09.05,3.13-.01,2.51-.15,4.92-.64,6.47-2.88,1.6-2.3,2.62-4.82,2.61-7.69-.02-5.89-.05-11.78.02-17.66.02-2.01-.44-3.86-1.18-5.7-1.47-3.68-4.18-5.4-8.12-5.39-8.65.03-17.29,0-25.94.01-1.71,0-1.52-.17-1.52,1.61,0,6.01,0,12.02,0,18.03Z"/>
  <path class="cls-3" d="M305.01,411.48c-.22-.6-.11-1.22-.11-1.82,0-17.98.05-35.95-.05-53.93-.02-3.4,2.23-6.65,6-7.87.45-.15.97-.12,1.46-.12,9.88-.04,19.75-.15,29.63-.08,6.26.05,12.51.1,18.77.04,2.87-.03,7.44,3.2,7.43,7.29-.03,18.53-.01,37.06-.02,55.59,0,.3-.07.6-.11.9h-13.26c0-8.09.02-16.19.02-24.28,0-1.37-.02-1.38-1.42-1.39-11.22,0-22.44,0-33.66,0-1.4,0-1.42.02-1.42,1.39,0,8.09.01,16.19.02,24.28h-13.26ZM336.41,373.06c5.7,0,11.4-.02,17.1.02.94,0,1.29-.23,1.27-1.22-.06-2.7.01-5.4-.03-8.09-.06-3.22-2.5-5.69-5.74-5.7-8.34-.04-16.68-.04-25.01,0-3.24.01-5.68,2.48-5.74,5.7-.05,2.64-.02,5.27,0,7.91,0,1.36.02,1.38,1.42,1.38,5.58,0,11.16,0,16.74,0Z"/>
  <path class="cls-3" d="M0,347.38c4.23-.27,8.46-.03,12.69-.13.93-.02.92.51.92,1.17-.01,4.3,0,8.6,0,12.89,0,3.32.04,6.63-.02,9.95-.02,1,.31,1.21,1.24,1.21,7.8-.03,15.59-.02,23.39-.02,2.89,0,5.77,0,8.66,0,2.26,0,1.99.23,2-1.92,0-6.81,0-13.63,0-20.44,0-.31,0-.61,0-.92.03-1.37.03-1.39,1.42-1.39,3.5,0,7,.04,10.5-.03,1.01-.02,1.25.34,1.23,1.26-.05,1.9-.02,3.81-.02,5.71,0,18.05,0,36.1,0,54.15,0,2.26.29,1.97-1.92,1.99-3.07.02-6.14.02-9.21,0-2.31-.01-1.99.31-2-2.09-.01-7,0-14,0-21,0-.43,0-.86,0-1.29-.01-.45-.27-.65-.7-.66-.37,0-.74,0-1.1,0-10.56,0-21.12,0-31.68,0-.37,0-.74,0-1.1,0-.46,0-.66.24-.66.67,0,.43,0,.86,0,1.29,0,7.18,0,14.37,0,21.55,0,1.51-.01,1.54-1.47,1.53-4.05-.05-8.1.16-12.14-.11v-63.36Z"/>
  <path class="cls-1" d="M318.27,411.48c0-8.09-.02-16.19-.02-24.28,0-1.37.02-1.38,1.42-1.39,11.22,0,22.44,0,33.66,0,1.4,0,1.42.02,1.42,1.39,0,8.09-.01,16.19-.02,24.28h-36.47Z"/>
  <path class="cls-3" d="M108.45,348c9.82,0,19.65,0,29.47,0,.43,0,.86.02,1.29,0,.59-.03.9.14.9.81-.02,3.93-.01,7.86,0,11.79,0,.53-.21.79-.76.77-.43-.02-.86,0-1.29,0-7.49,0-14.98,0-22.47,0-1.62,0-1.63.01-1.63,1.55,0,11.05,0,22.1,0,33.15,0,1.65.01,1.66,1.74,1.66,7.61,0,15.23,0,22.84,0,1.71,0,1.57-.13,1.57,1.6,0,3.38,0,6.75,0,10.13,0,1.61-.01,1.62-1.55,1.63-1.47,0-2.95,0-4.42,0-18.54,0-37.08,0-55.62,0-2.16,0-1.99.35-2-1.92,0-3.38-.01-6.75,0-10.13,0-1.27.03-1.3,1.31-1.3,6.94,0,13.87,0,20.81,0,.43,0,.86-.02,1.29,0,.6.02.93-.22.89-.86-.02-.37,0-.74,0-1.1,0-10.87,0-21.73,0-32.6,0-.31-.02-.62,0-.92.05-.61-.17-.93-.82-.89-.43.02-.86,0-1.29,0-6.88,0-13.75,0-20.63,0-1.56,0-1.57-.01-1.57-1.61,0-3.32,0-6.63,0-9.95,0-2-.21-1.8,1.74-1.8,10.07,0,20.14,0,30.21,0Z"/>
  <path class="cls-2" d="M152.75,379.19c0-9.76,0-19.52,0-29.28,0-.49,0-.98,0-1.47,0-.6.31-.9.9-.92.49-.01.98,0,1.47,0,16.94,0,33.88,0,50.83,0,4.36,0,7.87,2.84,8.75,7.15.27,1.32.43,2.66.42,4.02-.03,4.36-.02,8.72,0,13.08,0,1.23-.12,2.44-.3,3.66-.47,3.15-2.11,5.42-4.91,6.91-1.05.56-2.11.84-3.33.84-12.89-.03-25.78-.02-38.67-.02-2.23,0-2.02-.28-2.02,2.1,0,7.8,0,15.59,0,23.39,0,.37-.04.74,0,1.1.11.88-.23,1.17-1.13,1.15-2.82-.05-5.65-.02-8.47-.02-.86,0-1.72-.03-2.58,0-.69.03-1.03-.19-.97-.93.04-.43,0-.86,0-1.29,0-9.82,0-19.64,0-29.47ZM182.09,355.83c-4.97,0-9.93,0-14.9,0-.67,0-1.34-.15-1.33.95.04,5.09.02,10.18.01,15.27,0,.68.22,1.04.95,1,.31-.02.61,0,.92,0,9.26,0,18.52,0,27.77,0,.99,0,1.97-.04,2.92-.27,3.86-.93,5.95-3.93,5.67-6.89-.11-1.16-.03-2.33-.01-3.49.03-1.63-.6-2.99-1.71-4.13-1.62-1.67-3.64-2.43-5.95-2.43-4.78,0-9.56,0-14.35,0Z"/>
  <path class="cls-3" d="M260.9,411.09c-10.31,0-20.63,0-30.94,0-.43,0-.86-.02-1.29,0-.55.03-.79-.22-.77-.76.01-.43,0-.86,0-1.29,0-19.89,0-39.78,0-59.67,0-2.31-.16-1.96,1.95-1.97,3.25-.02,6.51,0,9.76,0,1.82,0,1.65-.11,1.65,1.72,0,15.41,0,30.82,0,46.23q0,2.38,2.46,2.38c15.9,0,31.8,0,47.7,0,.25,0,.49,0,.74,0,2.07,0,1.77-.06,1.78,1.77,0,3.32,0,6.63,0,9.95,0,1.83.1,1.64-1.72,1.64-10.44,0-20.87,0-31.31,0Z"/>
  <path class="cls-1" d="M361.74,141.45c.13,19.15.25,38.3.42,57.46.01,1.31-.32,2.05-1.5,2.76-32.08,19.32-64.14,38.67-96.17,58.07-1.23.75-2.06.72-3.28,0-32.21-18.84-64.45-37.64-96.68-56.46-2.19-1.28-1.8-.58-1.82-3.1-.31-38.43-.6-76.85-.94-115.28-.01-1.22.38-1.83,1.4-2.44,32.18-19.39,64.35-38.8,96.49-58.25,1.11-.67,1.87-.63,2.96,0,32.37,18.93,64.76,37.84,97.17,56.71,1.15.67,1.57,1.37,1.58,2.71.09,19.28.24,38.55.37,57.83ZM182.74,91.6c.53.32,1.05.63,1.57.94,23.99,14.21,47.99,28.4,71.96,42.66,1.24.74,2.1.67,3.32,0,18.84-10.36,37.72-20.66,56.58-30.98.43-.23.84-.5,1.29-.7.86-.38,1.04-.26,1.13.73.03.31.01.61.01.92.15,22.96.28,45.92.47,68.88,0,1.21-.36,1.84-1.38,2.46-18.74,11.42-37.45,22.87-56.15,34.36-1.07.66-1.83.74-2.95.07-18.85-11.22-37.73-22.4-56.63-33.54-1.14-.68-1.56-1.4-1.56-2.73-.04-13.32-.17-26.64-.23-39.96,0-1.08-.25-1.77-1.24-2.38-5.89-3.64-11.73-7.36-17.61-11.04-.33-.21-.62-.64-1.28-.37,0,.54,0,1.13,0,1.73.15,21.24.31,42.48.42,63.72,0,1.19.34,1.84,1.39,2.45,25.7,15.17,51.38,30.38,77.04,45.61.99.59,1.67.55,2.62-.03,25.44-15.61,50.9-31.19,76.38-46.74,1.05-.64,1.38-1.29,1.36-2.48-.12-6.87-.17-13.75-.22-20.62-.18-23.63-.35-47.27-.49-70.9,0-1.16-.26-1.85-1.34-2.48-6.26-3.62-12.48-7.31-18.67-11.04-1-.6-1.69-.52-2.63.08-2.78,1.79-5.6,3.53-8.5,5.12-16.37,9-32.75,18-49.1,27.05-1.12.62-1.9.54-2.95-.09-10.96-6.63-21.95-13.2-32.93-19.8-.47-.28-.93-.59-1.45-.92.42-.29.76-.54,1.13-.77,11.87-7.27,23.74-14.52,35.58-21.81.97-.6,1.67-.6,2.63-.02,5.99,3.6,12.03,7.11,18,10.72.94.57,1.57.51,2.45-.05,5.49-3.47,11.02-6.88,16.53-10.33.4-.25.92-.38,1.1-.92-.32-.49-.86-.67-1.32-.94-12.28-7.28-24.59-14.53-36.84-21.86-1.17-.7-1.91-.53-2.95.1-24.35,14.93-48.71,29.84-73.07,44.76-.51.31-1.13.51-1.49,1.14Z"/>
  <path class="cls-2" d="M182.74,91.6c.36-.63.98-.83,1.49-1.14,24.36-14.92,48.72-29.82,73.07-44.76,1.03-.63,1.78-.8,2.95-.1,12.25,7.33,24.56,14.58,36.84,21.86.46.27,1,.45,1.32.94-.18.54-.7.67-1.1.92-5.51,3.44-11.04,6.85-16.53,10.33-.88.56-1.52.61-2.45.05-5.98-3.61-12.02-7.12-18-10.72-.96-.58-1.66-.58-2.63.02-11.85,7.3-23.72,14.55-35.58,21.81-.36.22-.7.48-1.13.77.53.34.98.64,1.45.92,10.98,6.59,21.97,13.17,32.93,19.8,1.05.63,1.84.71,2.95.09,16.35-9.05,32.72-18.05,49.1-27.05,2.9-1.6,5.72-3.33,8.5-5.12.93-.6,1.62-.68,2.63-.08,6.19,3.74,12.41,7.43,18.67,11.04,1.09.63,1.34,1.32,1.34,2.48.14,23.63.31,47.27.49,70.9.05,6.88.1,13.75.22,20.62.02,1.18-.31,1.84-1.36,2.48-25.48,15.54-50.94,31.13-76.38,46.74-.96.59-1.64.62-2.62.03-25.66-15.23-51.34-30.44-77.04-45.61-1.04-.62-1.38-1.26-1.39-2.45-.11-21.24-.27-42.48-.42-63.72,0-.6,0-1.19,0-1.73.66-.27.95.16,1.28.37,5.87,3.68,11.71,7.4,17.61,11.04.99.61,1.23,1.3,1.24,2.38.06,13.32.19,26.64.23,39.96,0,1.33.42,2.06,1.56,2.73,18.9,11.14,37.77,22.32,56.63,33.54,1.12.67,1.88.58,2.95-.07,18.7-11.49,37.41-22.94,56.15-34.36,1.02-.62,1.39-1.25,1.38-2.46-.19-22.96-.32-45.92-.47-68.88,0-.31.01-.62-.01-.92-.08-.99-.27-1.11-1.13-.73-.45.2-.86.47-1.29.7-18.87,10.32-37.74,20.62-56.58,30.98-1.21.67-2.07.73-3.32,0-23.97-14.25-47.96-28.45-71.96-42.66-.52-.31-1.05-.63-1.57-.94Z"/>
</svg>